ply
format ascii 1.0
comment Created by Blender 2.78 (sub 0) - www.blender.org, source file: ''
element vertex 8
property float x
property float y
property float z
property float nx
property float ny
property float nz
element face 12
property list uchar uint vertex_indices
end_header
0.500000 -0.195312 0.500000 0.577349 -0.577349 0.577349
0.500000 0.195312 0.500000 0.577349 0.577349 0.577349
-0.500000 0.195312 0.500000 -0.577349 0.577349 0.577349
-0.500000 -0.195312 0.500000 -0.577349 -0.577349 0.577349
-0.500000 0.195312 -0.500000 -0.577349 0.577349 -0.577349
-0.500000 -0.195312 -0.500000 -0.577349 -0.577349 -0.577349
0.500000 0.195312 -0.500000 0.577349 0.577349 -0.577349
0.500000 -0.195312 -0.500000 0.577349 -0.577349 -0.577349
3 0 1 2
3 0 2 3
3 4 5 3
3 4 3 2
3 6 7 4
3 7 5 4
3 1 0 6
3 0 7 6
3 0 3 7
3 3 5 7
3 1 6 4
3 1 4 2
