# Blender v2.78 (sub 0) OBJ File: ''
# www.blender.org
v 0.500000 0.500000 0.500000
v 0.500000 0.500000 -0.500000
v -0.500000 0.500000 -0.500000
v -0.500000 0.500000 0.500000
v -0.500000 -0.500000 -0.500000
v -0.500000 -0.500000 0.500000
v 0.500000 -0.500000 -0.500000
v 0.500000 -0.500000 0.500000
v 25.000000 9.999996 9.980573
v 25.000000 10.000004 -10.019427
v -25.000000 10.000004 -10.019427
v -25.000000 9.999996 9.980573
v -25.000000 -9.999996 -10.019435
v -25.000000 -10.000004 9.980565
v 25.000000 -9.999996 -10.019435
v 25.000000 -10.000004 9.980565
vn 0.0000 -1.0000 -0.0000
vn 1.0000 0.0000 0.0000
vn 0.0000 1.0000 0.0000
vn -1.0000 0.0000 0.0000
vn 0.0000 0.0000 -1.0000
vn 0.0000 -0.0000 1.0000
s 1
f 1//1 3//1 2//1
f 1//1 4//1 3//1
f 5//2 4//2 6//2
f 5//2 3//2 4//2
f 7//3 5//3 8//3
f 8//3 5//3 6//3
f 2//4 7//4 1//4
f 1//4 7//4 8//4
f 1//5 8//5 4//5
f 4//5 8//5 6//5
f 2//6 5//6 7//6
f 2//6 3//6 5//6
f 9//3 10//3 11//3
f 9//3 11//3 12//3
f 13//4 14//4 12//4
f 13//4 12//4 11//4
f 15//1 16//1 13//1
f 16//1 14//1 13//1
f 10//2 9//2 15//2
f 9//2 16//2 15//2
f 9//6 12//6 16//6
f 12//6 14//6 16//6
f 10//5 15//5 13//5
f 10//5 13//5 11//5
