# Blender v2.78 (sub 0) OBJ File: ''
# www.blender.org
mtllib bounds_large.mtl
o bounds
v 25.000000 5.000000 0.195313
v 25.000000 5.000000 -0.195311
v -25.000000 5.000000 -0.195311
v -25.000000 5.000000 0.195313
v -25.000000 -5.000000 -0.195313
v -25.000000 -5.000000 0.195311
v 25.000000 -5.000000 -0.195313
v 25.000000 -5.000000 0.195311
vn 0.0000 1.0000 0.0000
vn -1.0000 -0.0000 0.0000
vn 0.0000 -1.0000 0.0000
vn 1.0000 0.0000 0.0000
vn 0.0000 -0.0000 1.0000
vn 0.0000 0.0000 -1.0000
usemtl None
s 1
f 1//1 2//1 3//1
f 1//1 3//1 4//1
f 5//2 6//2 4//2
f 5//2 4//2 3//2
f 7//3 8//3 5//3
f 8//3 6//3 5//3
f 2//4 1//4 7//4
f 1//4 8//4 7//4
f 1//5 4//5 8//5
f 4//5 6//5 8//5
f 2//6 7//6 5//6
f 2//6 5//6 3//6
